STARTFONT 2.1
FONT -MIT-S25SYM KST-Medium-R-Normal--25-9-200-200-P-17-ISO8859-1
SIZE 9 200 200
FONTBOUNDINGBOX 19 25 -11 -5
STARTPROPERTIES 17
ADD_STYLE_NAME ""
AVERAGE_WIDTH 17
CHARSET_ENCODING "1"
CHARSET_REGISTRY "ISO8859"
DEFAULT_CHAR 0
FAMILY "S25SYM KST"
FONT_ASCENT 20
FONT_DESCENT 5
FOUNDRY "MIT"
PIXEL_SIZE 25
POINT_SIZE 9
RESOLUTION_X 200
RESOLUTION_Y 200
SETWIDTH_NAME "Normal"
SLANT "R"
SPACING "P"
WEIGHT_NAME "Medium"
ENDPROPERTIES
CHARS 72
STARTCHAR char1
ENCODING 1
SWIDTH 1776 0
DWIDTH 16 0
BBX 9 25 4 -5
BITMAP
0180
0200
0400
0C00
1800
1800
3800
3800
3800
7000
7000
7000
7000
7000
F000
F000
F000
F000
7800
7800
7800
7800
7800
7800
7800
ENDCHAR
STARTCHAR char2
ENCODING 2
SWIDTH 1776 0
DWIDTH 16 0
BBX 10 25 0 -5
BITMAP
03C0
03C0
0380
0380
0700
0700
0700
0C00
0C00
1000
2000
4000
C000
4000
2000
1000
0C00
0C00
0700
0700
0700
0380
0380
03C0
03C0
ENDCHAR
STARTCHAR char3
ENCODING 3
SWIDTH 1776 0
DWIDTH 16 0
BBX 9 25 4 -5
BITMAP
7800
7800
7800
7800
7800
7800
7800
F000
F000
F000
F000
7000
7000
7000
7000
7000
3800
3800
3800
1800
1800
0C00
0400
0200
0180
ENDCHAR
STARTCHAR char5
ENCODING 5
SWIDTH 1776 0
DWIDTH 16 0
BBX 9 25 3 -5
BITMAP
C000
2000
1000
1800
0C00
0C00
0E00
0E00
0E00
0700
0700
0700
0700
0700
0780
0780
0780
0780
0F00
0F00
0F00
0F00
0F00
0F00
0F00
ENDCHAR
STARTCHAR char6
ENCODING 6
SWIDTH 1776 0
DWIDTH 16 0
BBX 10 25 6 -5
BITMAP
F000
F000
7000
7000
3800
3800
3800
0C00
0C00
0200
0100
0080
00C0
0080
0100
0200
0C00
0C00
3800
3800
3800
7000
7000
F000
F000
ENDCHAR
STARTCHAR char7
ENCODING 7
SWIDTH 1776 0
DWIDTH 16 0
BBX 9 25 3 -5
BITMAP
0F00
0F00
0F00
0F00
0F00
0F00
0F00
0780
0780
0780
0780
0700
0700
0700
0700
0700
0E00
0E00
0E00
0C00
0C00
1800
1000
2000
C000
ENDCHAR
STARTCHAR char15
ENCODING 15
SWIDTH 1998 0
DWIDTH 18 0
BBX 16 25 0 -5
BITMAP
0000
FFFF
FFFE
7FFE
700C
700C
3818
3818
3818
1C30
1C30
1C60
0E60
0E60
0FC0
07C0
0780
0380
0300
0100
0000
0000
0000
0000
0000
ENDCHAR
STARTCHAR char19
ENCODING 19
SWIDTH 1776 0
DWIDTH 16 0
BBX 16 25 0 -5
BITMAP
003C
007E
00CF
01C7
0387
0386
0700
0700
0E00
0E00
1E00
1E00
1E00
1E00
3C00
3C00
3C00
3C00
7800
7800
7800
7800
7800
F800
F800
ENDCHAR
STARTCHAR char20
ENCODING 20
SWIDTH 1776 0
DWIDTH 16 0
BBX 4 25 0 -5
BITMAP
F0
F0
F0
F0
F0
F0
E0
E0
E0
E0
E0
E0
C0
C0
C0
C0
C0
C0
80
80
80
80
00
00
00
ENDCHAR
STARTCHAR char21
ENCODING 21
SWIDTH 1776 0
DWIDTH 16 0
BBX 5 25 11 -5
BITMAP
08
08
08
08
08
08
18
18
18
18
18
18
38
38
38
38
38
38
78
78
78
78
F8
F8
F8
ENDCHAR
STARTCHAR char22
ENCODING 22
SWIDTH 1776 0
DWIDTH 16 0
BBX 16 25 0 -5
BITMAP
001F
001F
001E
001E
001E
001E
001E
003C
003C
003C
003C
0078
0078
0078
0078
0070
0070
00E0
00E0
61C0
E1C0
E380
F300
7E00
3C00
ENDCHAR
STARTCHAR char23
ENCODING 23
SWIDTH 2109 0
DWIDTH 19 0
BBX 15 25 2 -5
BITMAP
0000
0000
0000
0000
0C00
1800
3000
FFFE
FFFE
3000
1800
0C00
0060
0030
0018
FFFE
FFFE
0018
0030
0060
0000
0000
0000
0000
0000
ENDCHAR
STARTCHAR char24
ENCODING 24
SWIDTH 1776 0
DWIDTH 16 0
BBX 12 25 1 -5
BITMAP
0010
0020
0020
0060
00C0
00C0
0180
0180
0300
0300
0700
0700
0E00
0E00
0E00
1C00
1C00
1C00
3C00
3C00
3C00
7800
7800
7800
F800
ENDCHAR
STARTCHAR char25
ENCODING 25
SWIDTH 1776 0
DWIDTH 16 0
BBX 6 25 0 -5
BITMAP
7C
7C
F8
F8
F8
F8
F8
F8
F8
F8
F8
F8
F8
F8
F8
F8
F8
F8
F8
F8
F8
F8
F8
7C
7C
ENDCHAR
STARTCHAR char26
ENCODING 26
SWIDTH 1776 0
DWIDTH 16 0
BBX 12 25 1 -5
BITMAP
F800
7800
7800
7800
3C00
3C00
3C00
1C00
1C00
1C00
0E00
0E00
0E00
0700
0700
0300
0300
0180
0180
00C0
00C0
0060
0020
0020
0010
ENDCHAR
STARTCHAR char30
ENCODING 30
SWIDTH 2331 0
DWIDTH 21 0
BBX 17 25 2 -5
BITMAP
000000
000000
000000
000000
000000
000000
000000
1F0000
3F8380
71C700
E0FE00
007C00
000000
1F0000
3F8380
71C700
E0FE00
007C00
000000
000000
000000
000000
000000
000000
000000
ENDCHAR
STARTCHAR char32
ENCODING 32
SWIDTH 1110 0
DWIDTH 10 0
BBX 1 25 0 -5
BITMAP
00
00
00
00
00
00
00
00
00
00
00
00
00
00
00
00
00
00
00
00
00
00
00
00
00
ENDCHAR
STARTCHAR char33
ENCODING 33
SWIDTH 1776 0
DWIDTH 16 0
BBX 16 25 0 -5
BITMAP
FFFF
FFFF
C003
C003
C003
C003
C003
C003
C003
C003
C003
C003
C003
C003
C003
C003
C003
C003
C003
C003
C003
C003
C003
FFFF
FFFF
ENDCHAR
STARTCHAR char34
ENCODING 34
SWIDTH 1554 0
DWIDTH 14 0
BBX 12 25 0 -5
BITMAP
0000
0000
6060
F0F0
F0F0
6060
0000
0000
0000
0000
0000
0000
0000
0000
0000
0000
0000
0000
0000
0000
0000
0000
0000
0000
0000
ENDCHAR
STARTCHAR char35
ENCODING 35
SWIDTH 1887 0
DWIDTH 17 0
BBX 12 25 2 -5
BITMAP
0600
0F00
0F00
0600
0600
6660
FFF0
FFF0
6660
0600
0600
0600
0600
0600
0600
0600
0600
0600
0600
0600
0600
0600
0600
0600
0000
ENDCHAR
STARTCHAR char36
ENCODING 36
SWIDTH 1443 0
DWIDTH 13 0
BBX 8 25 2 -5
BITMAP
1E
3F
63
C0
C0
E0
70
38
38
7C
CE
C6
E3
73
3A
1E
0C
0E
07
03
03
83
FE
78
00
ENDCHAR
STARTCHAR char37
ENCODING 37
SWIDTH 1887 0
DWIDTH 17 0
BBX 12 25 2 -5
BITMAP
0600
0F00
0F00
0600
0600
6660
FFF0
FFF0
6660
0600
0600
0600
0600
0600
0600
6660
FFF0
FFF0
6660
0600
0600
0F00
0F00
0600
0000
ENDCHAR
STARTCHAR char39
ENCODING 39
SWIDTH 1554 0
DWIDTH 14 0
BBX 8 25 2 -5
BITMAP
00
07
0E
1C
38
30
60
C0
00
00
00
00
00
00
00
00
00
00
00
00
00
00
00
00
00
ENDCHAR
STARTCHAR char40
ENCODING 40
SWIDTH 1443 0
DWIDTH 13 0
BBX 9 25 2 -5
BITMAP
0180
0180
0300
0600
0600
0C00
1800
1800
3000
6000
6000
C000
6000
6000
3000
1800
1800
0C00
0600
0600
0300
0180
0180
0000
0000
ENDCHAR
STARTCHAR char41
ENCODING 41
SWIDTH 1443 0
DWIDTH 13 0
BBX 9 25 2 -5
BITMAP
C000
C000
6000
3000
3000
1800
0C00
0C00
0600
0300
0300
0180
0300
0300
0600
0C00
0C00
1800
3000
3000
6000
C000
C000
0000
0000
ENDCHAR
STARTCHAR char42
ENCODING 42
SWIDTH 2220 0
DWIDTH 20 0
BBX 16 25 2 -5
BITMAP
0000
0000
0000
0000
0000
0000
E007
700E
381C
1C38
0E70
07E0
03C0
03C0
07E0
0E70
1C38
381C
700E
E007
0000
0000
0000
0000
0000
ENDCHAR
STARTCHAR char43
ENCODING 43
SWIDTH 1998 0
DWIDTH 18 0
BBX 14 25 2 -5
BITMAP
0000
0000
0000
0000
0000
0000
0300
0300
0300
0300
0300
FFFC
FFFC
0300
0300
0300
0300
0300
FFFC
FFFC
0000
0000
0000
0000
0000
ENDCHAR
STARTCHAR char45
ENCODING 45
SWIDTH 1998 0
DWIDTH 18 0
BBX 14 25 2 -5
BITMAP
0000
0000
0000
0000
0000
0000
FFFC
FFFC
0300
0300
0300
0300
0300
FFFC
FFFC
0300
0300
0300
0300
0300
0000
0000
0000
0000
0000
ENDCHAR
STARTCHAR char46
ENCODING 46
SWIDTH 1110 0
DWIDTH 10 0
BBX 4 25 3 -5
BITMAP
00
00
00
00
00
00
00
00
00
00
60
F0
F0
60
00
00
00
00
00
00
00
00
00
00
00
ENDCHAR
STARTCHAR char47
ENCODING 47
SWIDTH 1887 0
DWIDTH 17 0
BBX 13 25 2 -5
BITMAP
0000
0000
0000
0000
0000
0000
0000
0700
0700
0700
0000
0000
FFF8
FFF8
0000
0000
0700
0700
0700
0000
0000
0000
0000
0000
0000
ENDCHAR
STARTCHAR char48
ENCODING 48
SWIDTH 888 0
DWIDTH 8 0
BBX 6 25 0 -5
BITMAP
00
00
18
18
18
00
00
30
30
30
60
60
60
60
C0
C0
CC
FC
F8
30
00
00
00
00
00
ENDCHAR
STARTCHAR char49
ENCODING 49
SWIDTH 1332 0
DWIDTH 12 0
BBX 10 25 0 -5
BITMAP
0000
0F80
1FC0
18C0
18C0
19C0
3300
3300
3600
6C00
7800
7000
6000
E000
C000
C000
C600
FE00
FC00
3800
0000
0000
0000
0000
0000
ENDCHAR
STARTCHAR char50
ENCODING 50
SWIDTH 2442 0
DWIDTH 22 0
BBX 20 25 2 -5
BITMAP
000030
000030
000030
000060
000060
0000C0
0000C0
000180
000180
000300
000300
000600
000600
000C00
000C00
F81800
F81800
1C3000
1C3000
0E6000
0E6000
07C000
03C000
038000
018000
ENDCHAR
STARTCHAR char51
ENCODING 51
SWIDTH 2553 0
DWIDTH 23 0
BBX 19 25 2 -5
BITMAP
000000
000000
03F800
0FFE00
1CE700
38E380
70E1C0
60E0C0
C0E060
C0E060
FFFFE0
FFFFE0
FFFFE0
C0E060
C0E060
60E0C0
70E1C0
38E380
1CE700
0FFE00
03F800
000000
000000
000000
000000
ENDCHAR
STARTCHAR char52
ENCODING 52
SWIDTH 2553 0
DWIDTH 23 0
BBX 19 25 2 -5
BITMAP
000000
000000
03F800
0FFE00
1C0700
380380
7C07C0
6E0EC0
C71C60
C3B860
C1F060
C0E060
C1F060
C3B860
C71C60
6E0EC0
7C07C0
380380
1C0700
0FFE00
03F800
000000
000000
000000
000000
ENDCHAR
STARTCHAR char53
ENCODING 53
SWIDTH 2220 0
DWIDTH 20 0
BBX 16 25 2 -5
BITMAP
0000
0000
07E0
1FF8
381C
6006
6006
C003
C003
C003
C003
C003
C003
C003
C003
C003
C003
C003
C003
C003
C003
0000
0000
0000
0000
ENDCHAR
STARTCHAR char54
ENCODING 54
SWIDTH 2220 0
DWIDTH 20 0
BBX 16 25 2 -5
BITMAP
0000
0000
C003
C003
C003
C003
C003
C003
C003
C003
C003
C003
C003
C003
C003
C003
6006
6006
381C
1FF8
07E0
0000
0000
0000
0000
ENDCHAR
STARTCHAR char55
ENCODING 55
SWIDTH 1776 0
DWIDTH 16 0
BBX 12 25 3 -5
BITMAP
8000
4000
4000
6000
3000
3000
1800
1800
0C00
0C00
0E00
0E00
0700
0700
0700
0380
0380
0380
03C0
03C0
03C0
01E0
01E0
01E0
01F0
ENDCHAR
STARTCHAR char56
ENCODING 56
SWIDTH 1776 0
DWIDTH 16 0
BBX 6 25 10 -5
BITMAP
F8
F8
7C
7C
7C
7C
7C
7C
7C
7C
7C
7C
7C
7C
7C
7C
7C
7C
7C
7C
7C
7C
7C
F8
F8
ENDCHAR
STARTCHAR char57
ENCODING 57
SWIDTH 1776 0
DWIDTH 16 0
BBX 12 25 3 -5
BITMAP
01F0
01E0
01E0
01E0
03C0
03C0
03C0
0380
0380
0380
0700
0700
0700
0E00
0E00
0C00
0C00
1800
1800
3000
3000
6000
4000
4000
8000
ENDCHAR
STARTCHAR char58
ENCODING 58
SWIDTH 1221 0
DWIDTH 11 0
BBX 7 25 1 -5
BITMAP
00
00
00
00
00
00
00
C6
C6
C6
C6
C6
C6
C6
C6
C6
C6
C6
C6
C6
00
00
00
00
00
ENDCHAR
STARTCHAR char59
ENCODING 59
SWIDTH 1665 0
DWIDTH 15 0
BBX 14 25 0 -5
BITMAP
0000
0000
0000
0000
0000
0000
0000
0300
0300
0300
0300
0300
0300
0300
0300
0300
0300
0300
FFFC
FFFC
0000
0000
0000
0000
0000
ENDCHAR
STARTCHAR char60
ENCODING 60
SWIDTH 2553 0
DWIDTH 23 0
BBX 20 25 1 -5
BITMAP
000000
000000
000000
000000
003030
00F0F0
03C3C0
0F0F00
3C3C00
F0F000
F0F000
3C3C00
0F0F00
03C3C0
00F0F0
003030
000000
000000
000000
000000
000000
000000
000000
000000
000000
ENDCHAR
STARTCHAR char61
ENCODING 61
SWIDTH 2331 0
DWIDTH 21 0
BBX 17 25 2 -5
BITMAP
000000
000000
000000
000000
000000
000000
000000
000000
000000
0F0000
3F8380
71C700
E0FE00
007C00
000000
000000
000000
FFFF80
FFFF80
000000
000000
000000
000000
000000
000000
ENDCHAR
STARTCHAR char62
ENCODING 62
SWIDTH 2553 0
DWIDTH 23 0
BBX 20 25 1 -5
BITMAP
000000
000000
000000
000000
C0C000
F0F000
3C3C00
0F0F00
03C3C0
00F0F0
00F0F0
03C3C0
0F0F00
3C3C00
F0F000
C0C000
000000
000000
000000
000000
000000
000000
000000
000000
000000
ENDCHAR
STARTCHAR char63
ENCODING 63
SWIDTH 999 0
DWIDTH 9 0
BBX 7 25 0 -5
BITMAP
00
00
00
00
00
00
00
00
00
00
00
00
00
00
00
00
18
18
30
3C
0E
06
C6
FE
7C
ENDCHAR
STARTCHAR char65
ENCODING 65
SWIDTH 2331 0
DWIDTH 21 0
BBX 17 25 1 -5
BITMAP
000000
000000
000000
000000
000000
000000
1E0780
330F80
619800
C0F000
C06000
C06000
C06000
C06000
C0F000
619800
339F80
1F0F80
000000
000000
000000
000000
000000
000000
000000
ENDCHAR
STARTCHAR char69
ENCODING 69
SWIDTH 2331 0
DWIDTH 21 0
BBX 17 25 2 -5
BITMAP
000000
000000
01FE00
03FF00
070380
0E0180
0E0100
0E0000
0E0000
070000
07F000
07F000
070000
1C0000
380000
700000
E00400
E00600
E00E00
701C00
3FF800
1FF000
000000
000000
000000
ENDCHAR
STARTCHAR char72
ENCODING 72
SWIDTH 2109 0
DWIDTH 19 0
BBX 17 25 1 -5
BITMAP
000000
006000
006380
00CE00
00F800
03E000
0F8000
398000
E1FE00
03FF00
030300
030300
030300
060600
060600
060600
0C0C00
0C0C00
0C0C00
0C0C00
000000
000000
000000
000000
000000
ENDCHAR
STARTCHAR char73
ENCODING 73
SWIDTH 1776 0
DWIDTH 16 0
BBX 14 25 0 -5
BITMAP
0078
00FC
01CC
01CC
0180
0180
0180
0380
0300
0300
0300
0300
0300
0700
0600
0600
0600
0600
0600
0600
CC00
CC00
CC00
7C00
3800
ENDCHAR
STARTCHAR char80
ENCODING 80
SWIDTH 2442 0
DWIDTH 22 0
BBX 18 25 0 -5
BITMAP
000000
FFFFC0
FFFFC0
3C0780
3C0380
3C0380
3C0380
380380
380380
380380
380380
380380
380380
380380
380380
380380
380380
380380
380380
380380
380380
3C0380
FE0FC0
FE0FC0
000000
ENDCHAR
STARTCHAR char82
ENCODING 82
SWIDTH 2553 0
DWIDTH 23 0
BBX 19 25 0 -5
BITMAP
FFFFE0
FFFFE0
C00060
C00060
600000
300000
180000
0C0000
060000
030000
038000
03C000
038000
030000
060000
0C0000
180000
300000
600000
C00060
C00060
FFFFE0
FFFFE0
000000
000000
ENDCHAR
STARTCHAR char83
ENCODING 83
SWIDTH 2664 0
DWIDTH 24 0
BBX 19 25 0 -5
BITMAP
FFFF80
FFFFC0
F001E0
7800E0
3C0060
1C0020
0E0000
070000
038000
01C000
00E000
007000
006000
00C000
00C000
018000
030000
060000
0C0000
180020
180060
3000E0
7FFFE0
FFFFC0
FFFF80
ENDCHAR
STARTCHAR char84
ENCODING 84
SWIDTH 2109 0
DWIDTH 19 0
BBX 15 25 2 -5
BITMAP
0000
0000
0000
0000
0000
0000
0000
07FE
1FFE
3800
7000
E000
C000
C000
C000
C000
E000
7000
3800
1FFE
07FE
0000
0000
0000
0000
ENDCHAR
STARTCHAR char85
ENCODING 85
SWIDTH 2109 0
DWIDTH 19 0
BBX 15 25 2 -5
BITMAP
0000
0000
0000
0030
0030
0060
0060
07FE
1FFE
38C0
70C0
E0C0
C180
C180
C180
C180
E300
7300
3B00
1FFE
07FE
0600
0600
0C00
0C00
ENDCHAR
STARTCHAR char86
ENCODING 86
SWIDTH 2109 0
DWIDTH 19 0
BBX 15 25 2 -5
BITMAP
0000
0000
0000
0000
0000
0000
0000
07FE
1FFE
3800
7000
E000
C000
C000
C000
C000
E000
7000
3800
1FFE
07FE
0000
0000
0000
7FFE
ENDCHAR
STARTCHAR char87
ENCODING 87
SWIDTH 2109 0
DWIDTH 19 0
BBX 15 25 2 -5
BITMAP
0000
0000
0000
0000
0000
0000
0000
FFC0
FFF0
0038
001C
000C
0006
0006
0006
0006
000C
001C
0038
FFF0
FFC0
0000
0000
0000
0000
ENDCHAR
STARTCHAR char88
ENCODING 88
SWIDTH 2109 0
DWIDTH 19 0
BBX 15 25 2 -5
BITMAP
0000
0000
0000
0060
0060
00C0
00C0
FFC0
FFF0
01B8
019C
018C
0306
0306
0306
0306
060C
061C
0638
FFF0
FFC0
0C00
0C00
1800
1800
ENDCHAR
STARTCHAR char89
ENCODING 89
SWIDTH 2109 0
DWIDTH 19 0
BBX 15 25 2 -5
BITMAP
0000
0000
0000
0000
0000
0000
0000
FFC0
FFF0
0038
001C
000C
0006
0006
0006
0006
000C
001C
0038
FFF0
FFC0
0000
0000
0000
FFFC
ENDCHAR
STARTCHAR char92
ENCODING 92
SWIDTH 1554 0
DWIDTH 14 0
BBX 12 25 0 -5
BITMAP
0000
F000
3C00
0F00
03C0
00F0
0000
0000
0000
0000
0000
0000
0000
0000
0000
0000
0000
0000
0000
0000
0000
0000
0000
0000
0000
ENDCHAR
STARTCHAR char93
ENCODING 93
SWIDTH 1554 0
DWIDTH 14 0
BBX 12 25 0 -5
BITMAP
0000
00F0
03C0
0F00
3C00
F000
0000
0000
0000
0000
0000
0000
0000
0000
0000
0000
0000
0000
0000
0000
0000
0000
0000
0000
0000
ENDCHAR
STARTCHAR char94
ENCODING 94
SWIDTH 1554 0
DWIDTH 14 0
BBX 12 25 0 -5
BITMAP
0600
0F00
1F80
39C0
70E0
E070
0000
0000
0000
0000
0000
0000
0000
0000
0000
0000
0000
0000
0000
0000
0000
0000
0000
0000
0000
ENDCHAR
STARTCHAR char99
ENCODING 99
SWIDTH 2220 0
DWIDTH 20 0
BBX 16 25 2 -5
BITMAP
0000
0000
07F0
1FFC
360E
6607
6603
C603
C600
C600
C600
C600
C600
C600
C600
C603
6603
6607
360E
1FFC
07F0
0000
0000
0000
0000
ENDCHAR
STARTCHAR char101
ENCODING 101
SWIDTH 1998 0
DWIDTH 18 0
BBX 14 25 2 -5
BITMAP
0000
0000
0000
0000
0000
0000
0000
07FC
1FFC
3800
7000
E000
C000
FFF0
FFF0
C000
E000
7000
3800
1FFC
07FC
0000
0000
0000
0000
ENDCHAR
STARTCHAR char102
ENCODING 102
SWIDTH 1998 0
DWIDTH 18 0
BBX 14 25 2 -5
BITMAP
0000
0000
0000
0000
0000
0000
0000
FF80
FFE0
0070
0038
0018
001C
3FFC
3FFC
001C
0018
0038
0070
FFE0
FF80
0000
0000
0000
0000
ENDCHAR
STARTCHAR char103
ENCODING 103
SWIDTH 2109 0
DWIDTH 19 0
BBX 16 25 2 -5
BITMAP
0000
0000
0000
0018
0018
0030
0030
07FF
1FFF
3860
7060
E0C0
C0C0
FFFC
FFFC
C180
E180
7300
3B00
1FFF
07FF
0600
0600
0C00
0C00
ENDCHAR
STARTCHAR char110
ENCODING 110
SWIDTH 2331 0
DWIDTH 21 0
BBX 17 25 0 -5
BITMAP
CE0180
CE0180
CF0180
CF0180
CD8180
CD8180
CCC180
CCC180
CC6180
CC6180
CC3180
CC3180
CC1980
CC1980
CC0D80
CC0D80
CC0780
CC0780
CC0380
CC0380
000000
000000
000000
000000
000000
ENDCHAR
STARTCHAR char111
ENCODING 111
SWIDTH 1221 0
DWIDTH 11 0
BBX 9 25 0 -5
BITMAP
3E00
7F00
E380
C180
C180
C180
E380
7F00
3E00
0000
0000
0000
0000
0000
0000
0000
0000
0000
0000
0000
0000
0000
0000
0000
0000
ENDCHAR
STARTCHAR char113
ENCODING 113
SWIDTH 2109 0
DWIDTH 19 0
BBX 17 25 0 -5
BITMAP
000000
07F000
1FFC00
3E0E00
360600
660300
E60380
C60180
C60180
C60180
C60180
C60180
C60180
C60180
C60180
E60380
660300
360600
3E0E00
1FFC00
07F000
003800
003F00
000F00
000000
ENDCHAR
STARTCHAR char114
ENCODING 114
SWIDTH 2109 0
DWIDTH 19 0
BBX 16 25 2 -5
BITMAP
0000
0000
FFF0
FFFC
CC0E
CC06
CC06
CC06
CC06
CC0E
CC1C
CFF8
CFF0
CC18
CC18
CC0C
CC0C
CC06
CC06
CC03
CC03
0000
0000
0000
0000
ENDCHAR
STARTCHAR char118
ENCODING 118
SWIDTH 1554 0
DWIDTH 14 0
BBX 12 25 0 -5
BITMAP
E070
70E0
39C0
1F80
0F00
0600
0000
0000
0000
0000
0000
0000
0000
0000
0000
0000
0000
0000
0000
0000
0000
0000
0000
0000
0000
ENDCHAR
STARTCHAR char122
ENCODING 122
SWIDTH 2220 0
DWIDTH 20 0
BBX 18 25 1 -5
BITMAP
000000
FFFFC0
FFFFC0
006180
00E380
00C300
018600
018600
030C00
030C00
061800
061800
0C3000
0C3000
186000
38E000
30C000
71C000
FFFFC0
FFFFC0
000000
000000
000000
000000
000000
ENDCHAR
ENDFONT
